<svg width="282" height="241" viewBox="0 0 282 241" fill="none" xmlns="http://www.w3.org/2000/svg">
<path opacity="0.2" fill-rule="evenodd" clip-rule="evenodd" d="M259.154 73.1631C272.065 67.3404 281.085 53.9176 281.085 38.2003C281.085 17.1046 264.693 0 244.738 0C230.387 0 215.673 7.77618 208.431 19.9036C158.019 -5.18515 98.2085 13.3985 98.2085 13.3985C98.2085 13.3985 87.5087 16.5026 73.5137 24.4236C66.6302 11.4258 51.2917 2.99296 36.3473 2.99296C16.2494 3.1355 0 20.2401 0 41.1932C0 56.9252 9.03685 70.3584 21.9675 76.1723C11.0338 97.2408 5.2478 124.694 11.2601 160.071C30.9304 275.812 298.902 271.821 273.103 119.447C270.04 101.354 265.238 86.0631 259.154 73.1631Z" fill="#C4C4C4"/>
</svg>
