<svg width="18" height="18" viewBox="0 0 18 18" fill="none" xmlns="http://www.w3.org/2000/svg">
<g clip-path="url(#clip0)">
<path d="M10.0551 9.00517L17.771 1.28931C18.0688 1.0017 18.077 0.527154 17.7894 0.229355C17.5018 -0.0684448 17.0273 -0.0767024 16.7295 0.210907C16.7232 0.216924 16.7171 0.223074 16.711 0.229355L8.99509 7.94522L1.27921 0.229311C0.981409 -0.0582986 0.506862 -0.050041 0.219252 0.247758C-0.0613305 0.538267 -0.0613305 0.998802 0.219252 1.28931L7.93513 9.00517L0.219252 16.721C-0.0734094 17.0137 -0.0734094 17.4883 0.219252 17.781C0.511957 18.0736 0.986504 18.0736 1.27921 17.781L8.99509 10.0651L16.711 17.781C17.0088 18.0686 17.4833 18.0603 17.7709 17.7625C18.0515 17.472 18.0515 17.0115 17.7709 16.721L10.0551 9.00517Z" fill="white"/>
</g>
<defs>
<clipPath id="clip0">
<rect width="18" height="18" fill="white"/>
</clipPath>
</defs>
</svg>
